<svg width="40" height="40" viewBox="0 0 40 40" fill="none" xmlns="http://www.w3.org/2000/svg">
<path d="M34.1485 5.85176C26.3448 -1.95026 13.6539 -1.95026 5.85022 5.85176C-1.95007 13.6538 -1.95007 26.348 5.85022 34.15C9.75205 38.0502 14.8761 39.9994 20.0002 39.9994C25.1243 39.9994 30.2467 38.0501 34.1485 34.15C41.9505 26.3481 41.9505 13.6538 34.1485 5.85176ZM28.2524 25.8962C28.9043 26.5481 28.9043 27.602 28.2524 28.2539C27.9272 28.5791 27.5004 28.7425 27.0735 28.7425C26.6466 28.7425 26.2197 28.5791 25.8945 28.2539L20.0001 22.3578L14.1074 28.2522C13.7806 28.5773 13.3537 28.7408 12.9285 28.7408C12.5016 28.7408 12.0747 28.5773 11.7496 28.2522C11.0976 27.6002 11.0976 26.5447 11.7496 25.8944L17.6423 20L11.7479 14.1056C11.096 13.4537 11.096 12.3982 11.7479 11.7479C12.3982 11.0959 13.4537 11.0959 14.1057 11.7479L20.0001 17.6423L25.8945 11.7479C26.5464 11.0959 27.6003 11.0959 28.2522 11.7479C28.9042 12.3982 28.9042 13.4537 28.2522 14.1056L22.3578 20L28.2524 25.8962Z" fill="#4F4F4F"/>
</svg>
