<svg width="20" height="20" viewBox="0 0 20 20" fill="none" xmlns="http://www.w3.org/2000/svg">
<path d="M10.0025 4.87225C7.16477 4.87225 4.87587 7.16166 4.87587 10C4.87587 12.8383 7.16477 15.1277 10.0025 15.1277C12.8402 15.1277 15.1291 12.8383 15.1291 10C15.1291 7.16166 12.8402 4.87225 10.0025 4.87225ZM10.0025 13.3337C8.16868 13.3337 6.66951 11.8387 6.66951 10C6.66951 8.16133 8.16422 6.66629 10.0025 6.66629C11.8407 6.66629 13.3354 8.16133 13.3354 10C13.3354 11.8387 11.8363 13.3337 10.0025 13.3337V13.3337ZM16.5345 4.6625C16.5345 5.32746 15.9991 5.85853 15.3388 5.85853C14.674 5.85853 14.143 5.32299 14.143 4.6625C14.143 4.00201 14.6784 3.46647 15.3388 3.46647C15.9991 3.46647 16.5345 4.00201 16.5345 4.6625ZM19.93 5.87638C19.8541 4.27424 19.4883 2.85507 18.3148 1.68582C17.1458 0.516568 15.727 0.150619 14.1252 0.070289C12.4743 -0.0234297 7.52618 -0.0234297 5.87531 0.070289C4.27799 0.146156 2.85914 0.512105 1.68569 1.68136C0.512235 2.85061 0.15083 4.26978 0.0705174 5.87192C-0.0231803 7.52315 -0.0231803 12.4724 0.0705174 14.1236C0.146368 15.7258 0.512235 17.1449 1.68569 18.3142C2.85914 19.4834 4.27353 19.8494 5.87531 19.9297C7.52618 20.0234 12.4743 20.0234 14.1252 19.9297C15.727 19.8538 17.1458 19.4879 18.3148 18.3142C19.4838 17.1449 19.8497 15.7258 19.93 14.1236C20.0237 12.4724 20.0237 7.52761 19.93 5.87638V5.87638ZM17.7972 15.8953C17.4492 16.7701 16.7755 17.4439 15.8965 17.7965C14.5803 18.3186 11.457 18.1981 10.0025 18.1981C8.54793 18.1981 5.42021 18.3142 4.10844 17.7965C3.23393 17.4484 2.5602 16.7745 2.20772 15.8953C1.68569 14.5788 1.80616 11.4549 1.80616 10C1.80616 8.54513 1.69015 5.41671 2.20772 4.10465C2.55574 3.22995 3.22947 2.55606 4.10844 2.2035C5.42467 1.68136 8.54793 1.80185 10.0025 1.80185C11.457 1.80185 14.5847 1.68582 15.8965 2.2035C16.771 2.5516 17.4448 3.22548 17.7972 4.10465C18.3193 5.42118 18.1988 8.54513 18.1988 10C18.1988 11.4549 18.3193 14.5833 17.7972 15.8953Z" fill="url(#paint0_radial)"/>
<defs>
<radialGradient id="paint0_radial" cx="0" cy="0" r="1" gradientUnits="userSpaceOnUse" gradientTransform="translate(0.000244141 20) rotate(-45) scale(28.2843)">
<stop stop-color="#FFD353"/>
<stop offset="0.318853" stop-color="#FB5247"/>
<stop offset="0.618456" stop-color="#E63973"/>
<stop offset="1" stop-color="#5F008F"/>
</radialGradient>
</defs>
</svg>
