<svg width="20" height="20" viewBox="0 0 20 20" fill="none" xmlns="http://www.w3.org/2000/svg">
<path d="M4.30891 19.2496H0.317969V6.39761H4.30891V19.2496ZM2.31129 4.64449C1.03512 4.64449 0 3.58746 0 2.31129C9.13429e-09 1.6983 0.24351 1.11041 0.676961 0.676961C1.11041 0.24351 1.6983 0 2.31129 0C2.92428 0 3.51217 0.24351 3.94562 0.676961C4.37907 1.11041 4.62258 1.6983 4.62258 2.31129C4.62258 3.58746 3.58703 4.64449 2.31129 4.64449ZM19.2457 19.2496H15.2634V12.9933C15.2634 11.5023 15.2333 9.59019 13.1884 9.59019C11.1134 9.59019 10.7955 11.2101 10.7955 12.8859V19.2496H6.80883V6.39761H10.6365V8.15074H10.6923C11.2252 7.14097 12.5267 6.07535 14.4684 6.07535C18.5075 6.07535 19.25 8.73511 19.25 12.1898V19.2496H19.2457Z" fill="#0A66C2"/>
</svg>
