<svg width="95" height="55" viewBox="0 0 95 55" fill="none" xmlns="http://www.w3.org/2000/svg">
<path d="M53.2356 19.5922C54.4439 15.6788 57.2256 13.075 60.0252 11.371C63.3016 9.41252 67.0209 8.39371 70.8017 8.41902H87.1922V46.262H65.8439C53.4316 46.0124 51.297 29.9551 50.9467 23.2992C50.7847 19.69 49.7998 16.1722 48.073 13.035C46.0264 9.41821 43.1453 6.38652 39.6892 4.21287C35.2762 1.42906 30.2054 -0.0291361 25.0414 0.000556268H0V54.967H23.5926C24.1864 54.967 24.8128 54.967 25.4214 54.9947C27.9597 55.0594 38.5937 54.6866 46.2858 44.6874C46.2858 44.6874 42.8509 39.9666 42.3967 35.403C42.1676 36.0074 41.8978 36.5944 41.5892 37.1594C40.039 40.0387 37.7749 42.4351 35.0317 44.1002C32.2886 45.7652 29.1662 46.6382 25.9884 46.6287H8.44015V8.49912H25.362C28.4751 8.47831 31.5465 9.24175 34.3128 10.7239C37.2717 12.3017 39.7169 14.7497 41.3428 17.7619C42.5623 20.0943 43.247 22.6873 43.3438 25.3391C43.5694 30.1831 44.8756 42.6968 52.25 48.4498C52.25 48.4498 59.2236 54.5079 65.8172 54.665H95V0.000556268H70.9887C66.7592 -0.0247382 62.5661 0.812841 58.6477 2.46569C54.9842 4.03722 51.1486 6.52701 49.2931 10.3726C49.2931 10.3726 51.965 15.0502 52.9328 19.0191C52.9815 19.2303 53.0841 19.424 53.2297 19.5799L53.2356 19.5922Z" fill="#6AB5CF"/>
</svg>
