<svg width="90" height="53" viewBox="0 0 90 53" fill="none" xmlns="http://www.w3.org/2000/svg">
<path d="M50.4338 18.8798C51.5784 15.1087 54.2137 12.5996 56.8659 10.9575C59.9699 9.07025 63.4935 8.08849 67.0753 8.11287H82.6031V44.5797H62.3784C50.6194 44.3392 48.5972 28.8658 48.2653 22.452C48.1118 18.974 47.1788 15.5841 45.5428 12.561C43.604 9.07573 40.8745 6.15428 37.6003 4.05967C33.4195 1.3771 28.6157 -0.0280766 23.7234 0.00053604H0V52.9682H22.3509C22.9134 52.9682 23.5069 52.9682 24.0834 52.9949C26.4881 53.0573 36.5625 52.698 43.8497 43.0624C43.8497 43.0624 40.5956 38.5133 40.1653 34.1156C39.9482 34.6981 39.6926 35.2637 39.4003 35.8082C37.9317 38.5828 35.7868 40.892 33.188 42.4965C30.5892 44.101 27.6311 44.9423 24.6206 44.9331H7.99594V8.19006H24.0272C26.9764 8.17001 29.8862 8.90569 32.5069 10.334C35.31 11.8544 37.6265 14.2133 39.1669 17.116C40.3221 19.3636 40.9708 21.8623 41.0625 24.4177C41.2762 29.0855 42.5137 41.1442 49.5 46.688C49.5 46.688 56.1066 52.5257 62.3531 52.6772H90V0.00053604H67.2525C63.2456 -0.0238387 59.2731 0.783283 55.5609 2.37603C52.0903 3.89041 48.4566 6.28967 46.6987 9.99544C46.6987 9.99544 49.23 14.5029 50.1469 18.3275C50.193 18.531 50.2902 18.7177 50.4281 18.8679L50.4338 18.8798Z" fill="#2F80ED"/>
</svg>
