<svg width="220" height="220" viewBox="0 0 220 220" fill="none" xmlns="http://www.w3.org/2000/svg">
<circle cx="110" cy="110" r="110" fill="#E4F3FF"/>
<g clip-path="url(#clip0)">
<path d="M148.629 133.698C150.974 133.698 153.224 134.63 154.882 136.288C156.54 137.947 157.472 140.196 157.472 142.541V160.653C157.472 162.998 156.54 165.248 154.882 166.906C153.224 168.564 150.974 169.496 148.629 169.496V133.698Z" fill="#FF5959"/>
<path d="M122.896 95.2328H39.4483C35.5947 95.2328 32.4707 98.3568 32.4707 102.21V102.215C32.4707 106.068 35.5947 109.192 39.4483 109.192H122.896C126.75 109.192 129.874 106.068 129.874 102.215V102.21C129.874 98.3568 126.75 95.2328 122.896 95.2328Z" fill="#FF5959"/>
<path d="M47.5488 116.863H50.0529" stroke="#231F20" stroke-linecap="round" stroke-linejoin="round"/>
<path d="M50.0529 197.131H47.5488" stroke="#231F20" stroke-linecap="round" stroke-linejoin="round"/>
<path d="M130.25 110.366C133.794 106.883 137.626 103.707 141.706 100.872C147.982 96.4156 155.217 93.4965 162.829 92.3497C170.44 91.203 178.214 91.8606 185.525 94.2695C187.194 94.8245 188.137 95.2377 188.137 95.2377L161.537 25.9619C135.963 16.3635 114.012 46.7405 114.012 46.7405C105.91 59.2957 95.6746 70.3374 83.7687 79.3668C78.5986 83.2904 72.4416 85.7029 65.9823 86.3361C57.3312 87.1416 52.3066 84.358 52.3066 84.358L62.5895 113.024L130.25 110.366Z" fill="#5DE1B1"/>
<path d="M119.504 109.601C140.817 84.1028 166.92 83.8691 166.92 83.8691C164.934 77.1585 172.212 75.1053 172.212 75.1053L158.645 40.6386C146.872 44.7409 148.842 32.3255 148.842 32.3255C133.075 30.3557 100.754 74.254 100.754 74.254C84.0608 94.0017 69.3042 93.2714 69.3042 93.2714C69.6214 98.0665 65.7319 98.0664 65.7319 98.0664L70.3225 110.09L119.504 109.601Z" fill="white"/>
<path d="M116.077 99.2476C123.697 99.2476 129.874 93.0706 129.874 85.4509C129.874 77.8312 123.697 71.6542 116.077 71.6542C108.458 71.6542 102.281 77.8312 102.281 85.4509C102.281 93.0706 108.458 99.2476 116.077 99.2476Z" fill="#5DE1B1"/>
<path d="M54.1177 75.5226C54.1177 75.5226 67.5179 82.1289 80.9181 70.3019" stroke="#231F20" stroke-width="2" stroke-linecap="round" stroke-linejoin="round" stroke-dasharray="12 12"/>
<path d="M137.265 20.6576C137.369 20.6576 147.243 16.4342 158.131 19.0258" stroke="#231F20" stroke-width="2" stroke-linecap="round" stroke-linejoin="round" stroke-dasharray="12 12"/>
<path d="M156.229 102.837C156.229 102.837 165.41 98.2464 174.95 101.201" stroke="#231F20" stroke-width="2" stroke-linecap="round" stroke-linejoin="round" stroke-dasharray="12 12"/>
<path d="M151.754 187.737C151.759 192.195 150.033 196.481 146.939 199.69C143.844 202.899 139.625 204.782 135.17 204.94H134.849H56.6254C53.4837 204.94 50.3727 204.322 47.47 203.12C44.5672 201.918 41.9297 200.156 39.708 197.935C37.4863 195.713 35.7239 193.076 34.5215 190.174C33.3191 187.271 32.7003 184.16 32.7003 181.019L32.4707 101.514C32.4707 101.514 31.2187 108.609 41.0843 109.185H129.937C132.052 109.185 134.168 109.13 136.28 109.064C139.994 108.947 149.167 109.719 151.754 119.843V187.737Z" fill="#FF8686"/>
<path d="M107.539 145.633H151.775V169.183H107.539C104.416 169.183 101.422 167.942 99.2143 165.734C97.0065 163.527 95.7661 160.532 95.7661 157.41C95.7656 155.863 96.0697 154.332 96.6611 152.903C97.2525 151.475 98.1195 150.176 99.2128 149.083C100.306 147.989 101.604 147.121 103.033 146.529C104.461 145.938 105.992 145.633 107.539 145.633Z" fill="#FF5959"/>
<path d="M110.202 163.586C113.615 163.586 116.382 160.819 116.382 157.406C116.382 153.992 113.615 151.225 110.202 151.225C106.788 151.225 104.021 153.992 104.021 157.406C104.021 160.819 106.788 163.586 110.202 163.586Z" fill="white"/>
<path d="M55.1524 116.867H136.485C138.123 116.868 139.694 117.519 140.852 118.678C142.01 119.837 142.661 121.409 142.661 123.047V190.954C142.661 192.593 142.01 194.164 140.852 195.323C139.694 196.482 138.123 197.134 136.485 197.135H52.6025" stroke="#231F20" stroke-linecap="round" stroke-linejoin="round" stroke-dasharray="12.22 12.22"/>
</g>
<defs>
<clipPath id="clip0">
<rect width="155.703" height="189.895" fill="white" transform="translate(32.4209 15.0527)"/>
</clipPath>
</defs>
</svg>
