<svg width="24" height="24" viewBox="0 0 24 24" fill="none" xmlns="http://www.w3.org/2000/svg">
<g clip-path="url(#clip0)">
<path d="M20.5717 0C20.0983 0 19.7145 0.383755 19.7145 0.857159V3.98827C15.3016 -0.284062 8.26089 -0.170056 3.98856 4.2428C1.97511 6.3225 0.851868 9.10531 0.857443 12C0.857443 12.4734 1.2412 12.8571 1.7146 12.8571C2.18801 12.8571 2.57171 12.4734 2.57171 12C2.57276 6.79274 6.79488 2.57223 12.0022 2.57329C14.6468 2.57379 17.1695 3.68497 18.9552 5.63569L15.158 6.90167C14.7083 7.05128 14.465 7.53709 14.6146 7.98679C14.7642 8.43649 15.25 8.67982 15.6997 8.53021L20.8426 6.81594C21.1937 6.69902 21.4301 6.36996 21.4289 5.99996V0.857109C21.4289 0.383755 21.0451 0 20.5717 0Z" fill="#828282"/>
<path d="M22.2866 11.1429C21.8132 11.1429 21.4295 11.5267 21.4295 12.0001C21.4284 17.2073 17.2063 21.4278 11.999 21.4268C9.35441 21.4263 6.83165 20.3151 5.04601 18.3644L8.84314 17.0984C9.29283 16.9488 9.53617 16.463 9.38655 16.0133C9.23694 15.5636 8.75113 15.3202 8.30143 15.4699L3.15858 17.1841C2.80752 17.301 2.57111 17.6301 2.57227 18.0001V23.1429C2.57227 23.6163 2.95603 24.0001 3.42943 24.0001C3.90283 24.0001 4.28659 23.6163 4.28659 23.1429V20.0118C8.6995 24.2841 15.7403 24.1702 20.0126 19.7573C22.026 17.6776 23.1493 14.8948 23.1437 12.0001C23.1438 11.5267 22.76 11.1429 22.2866 11.1429Z" fill="#828282"/>
</g>
<defs>
<clipPath id="clip0">
<rect width="24" height="24" fill="white"/>
</clipPath>
</defs>
</svg>
