<svg width="231" height="220" viewBox="0 0 231 220" fill="none" xmlns="http://www.w3.org/2000/svg">
<ellipse cx="118.327" cy="110" rx="110.012" ry="110" fill="#E4F3FF"/>
<path d="M126.433 38.369C126.537 38.369 136.412 34.1452 147.302 36.7371" stroke="#231F20" stroke-width="2" stroke-linecap="round" stroke-linejoin="round" stroke-dasharray="12 12"/>
<path d="M84.7447 194.215C84.7447 194.215 97.9142 189.077 102.834 176.396" stroke="#231F20" stroke-width="2" stroke-linecap="round" stroke-linejoin="round" stroke-dasharray="12 12"/>
<path d="M158.984 111.852L149.391 119.696C148.781 120.216 148.071 120.608 147.305 120.847C146.538 121.085 145.732 121.167 144.933 121.085C144.135 121.004 143.361 120.761 142.659 120.373C141.957 119.984 141.341 119.457 140.848 118.824C139.129 116.721 139.893 114.472 140.823 112.956C141.36 112.098 142.037 111.335 142.824 110.699L143.29 110.318C143.495 110.159 143.652 109.948 143.746 109.707C143.841 109.467 143.868 109.205 143.827 108.95C143.807 108.769 143.724 108.6 143.593 108.474C143.461 108.348 143.29 108.272 143.108 108.26C142.934 108.244 142.759 108.263 142.593 108.316C142.427 108.369 142.273 108.454 142.141 108.567L136.973 112.793C136.252 113.396 135.404 113.828 134.493 114.058C133.582 114.288 132.631 114.309 131.71 114.121C130.979 113.975 130.29 113.669 129.691 113.224C129.093 112.78 128.601 112.208 128.25 111.55C127.551 110.473 127.264 109.179 127.441 107.907C127.642 106.47 128.386 105.165 129.52 104.26L136.765 98.3364C136.944 98.1954 137.078 98.0066 137.154 97.7919C137.229 97.5772 137.242 97.3456 137.19 97.124C137.155 96.9635 137.078 96.8154 136.966 96.6952C136.854 96.575 136.712 96.4873 136.554 96.4413C136.388 96.3958 136.214 96.3937 136.047 96.4351C135.88 96.4766 135.726 96.5604 135.601 96.6783C134.691 97.4907 131.803 99.6446 128.684 97.4836C127.858 96.9005 127.19 96.1224 126.739 95.2185C126.287 94.3146 126.066 93.313 126.096 92.3031C126.128 91.0683 126.468 89.7024 127.58 88.7926L131.803 85.3401L182.946 109.524L166.706 122.803C164.507 124.601 161.341 124.775 159.049 123.097C158.638 122.797 158.268 122.446 157.946 122.052C156.866 120.732 156.862 119.238 157.193 117.985C157.58 116.577 158.403 115.328 159.543 114.415L159.68 114.302C159.89 114.131 160.046 113.903 160.128 113.644C160.21 113.386 160.215 113.11 160.142 112.849C160.069 112.588 159.922 112.354 159.718 112.175C159.514 111.997 159.262 111.882 158.994 111.845L158.95 111.84" fill="url(#paint0_radial)"/>
<path d="M122.155 81.2551L140.178 42.776L219.087 79.9732L201.454 118.316L122.155 81.2551Z" fill="#5DE1B1"/>
<path d="M201.863 77.2513C196.95 85.8558 207.627 92.7169 207.627 92.7169L203.712 101.382C194.174 97.0737 188.164 107.05 188.164 107.05L139.019 83.9253C144.162 74.3395 133.351 68.3789 133.351 68.3789L137.418 59.9113C137.418 59.9113 147.017 64.9627 152.655 54.3369L201.863 77.2513Z" fill="white"/>
<path d="M177.957 89.7833C183.001 85.6594 183.746 78.2281 179.622 73.1851C175.498 68.142 168.065 67.3969 163.022 71.5208C157.978 75.6447 157.233 83.076 161.357 88.119C165.482 93.1621 172.914 93.9072 177.957 89.7833Z" fill="#5DE1B1"/>
<path d="M218.91 80.2204C229.945 67.0409 220.575 61.2196 219.361 59.7764C219.154 59.5238 218.946 59.2693 218.738 59.0148L204.533 41.6457C201.208 37.5798 196.772 36.4581 192.789 36.5038C188.024 36.5886 183.429 38.2887 179.757 41.3257L145.398 69.4195C145.398 69.4195 151.802 79.96 162.419 71.2794L168.681 66.1591C168.681 66.1591 171.156 63.4471 173.586 66.4191C176.017 69.391 184.366 75.5976 193.803 68.0401L218.91 80.2204Z" fill="url(#paint1_radial)"/>
<path d="M99.1172 139.15L110.607 134.367C112.488 133.583 113.918 131.954 114.299 129.959C114.524 128.781 114.387 127.554 113.905 126.445C112.866 123.95 110.517 123.573 108.736 123.683C107.721 123.757 106.726 123.997 105.79 124.393L105.231 124.625C104.997 124.731 104.738 124.771 104.481 124.742C104.223 124.713 103.977 124.615 103.767 124.459C103.617 124.358 103.507 124.205 103.458 124.03C103.409 123.854 103.424 123.667 103.501 123.505C103.642 123.178 103.905 122.924 104.232 122.796L110.424 120.219C111.294 119.871 112.074 119.332 112.709 118.638C113.345 117.944 113.819 117.114 114.099 116.206C114.319 115.503 114.377 114.754 114.269 114.019C114.161 113.283 113.889 112.579 113.474 111.961C112.852 110.835 111.847 109.974 110.651 109.544C109.272 109.052 107.771 109.098 106.442 109.673L97.7665 113.284C97.5599 113.377 97.3308 113.408 97.1053 113.374C96.8799 113.341 96.6671 113.243 96.4914 113.093C96.3664 112.989 96.2721 112.851 96.2191 112.696C96.166 112.54 96.1564 112.374 96.1912 112.215C96.2318 112.046 96.3138 111.89 96.4297 111.763C96.5455 111.636 96.6914 111.541 96.854 111.487C98.0051 111.064 101.28 109.527 100.855 105.774C100.732 104.773 100.36 103.816 99.7752 102.994C99.1902 102.173 98.4112 101.513 97.5121 101.077C96.406 100.529 95.0389 100.191 93.7059 100.746L88.6492 102.851L85.6599 159.157L105.115 151.058C107.749 149.961 109.407 147.256 109.018 144.455C108.948 143.954 108.814 143.464 108.62 142.996C107.967 141.429 106.649 140.729 105.384 140.436C103.951 140.121 102.465 140.259 101.127 140.832L100.959 140.902C99.8348 141.37 98.6813 140.278 99.1172 139.15L99.1354 139.109Z" fill="url(#paint2_radial)"/>
<path d="M89.6169 92.4501L47.0563 90.3585L42.3645 177.181L84.6202 179.553L89.6169 92.4501Z" fill="#D1EAFF" fill-opacity="0.34"/>
<path d="M48.088 160.824C58.0247 160.515 59.0076 173.114 59.0076 173.114L68.5231 173.72C69.2576 163.313 80.9266 162.681 80.9266 162.681L83.8846 108.619C72.9712 108.673 72.8522 96.3739 72.8522 96.3739L63.4331 95.9995C63.4331 95.9995 63.327 106.807 51.2602 106.811L48.088 160.824Z" fill="white"/>
<path d="M71.8646 147.072C77.9073 144.556 80.7859 137.666 78.2941 131.682C75.8023 125.698 68.8838 122.886 62.8411 125.402C56.7985 127.917 53.9199 134.808 56.4117 140.792C58.9034 146.776 65.822 149.588 71.8646 147.072Z" fill="#FFCAB8"/>
<path d="M94.3504 89.9522L51.7907 87.8628L47.0989 174.686L89.3546 177.057L94.3504 89.9522Z" fill="#5DE1B1"/>
<path d="M52.8193 158.328C62.759 158.02 63.7398 170.62 63.7398 170.62L73.2538 171.216C73.9873 160.807 85.6564 160.175 85.6564 160.175L88.6186 106.13C77.7073 106.183 77.5862 93.8841 77.5862 93.8841L68.1733 93.5124C68.1733 93.5124 68.0641 104.319 56.0003 104.324L52.8193 158.328Z" fill="white"/>
<path d="M76.598 144.574C82.6407 142.059 85.5193 135.168 83.0275 129.184C80.5357 123.2 73.6172 120.388 67.5745 122.904C61.5318 125.42 58.6533 132.31 61.1451 138.294C63.6368 144.278 70.5554 147.09 76.598 144.574Z" fill="#5DE1B1"/>
<path d="M42.3646 177.181C27.6081 176.748 25.0914 169.734 24.3956 167.996C24.2707 167.697 24.1558 167.39 24.03 167.088L15.4489 146.48C13.4399 141.655 14.5579 137.228 16.4945 133.743C18.7983 129.582 22.5373 126.36 26.9533 124.521L68.106 107.389C68.106 107.389 74.3684 117.946 61.6406 123.244L54.1329 126.37C54.1329 126.37 50.558 127.284 52.0264 130.811C53.4948 134.337 55.0063 144.583 43.841 149.363L42.3646 177.181Z" fill="url(#paint3_radial)"/>
<defs>
<radialGradient id="paint0_radial" cx="0" cy="0" r="1" gradientUnits="userSpaceOnUse" gradientTransform="translate(149.85 103.585) rotate(50.7227) scale(25.5478 21.8591)">
<stop stop-color="#FF5959"/>
<stop offset="1" stop-color="#FF8686"/>
</radialGradient>
<radialGradient id="paint1_radial" cx="0" cy="0" r="1" gradientUnits="userSpaceOnUse" gradientTransform="translate(187.401 70.5298) rotate(50.7227) scale(27.4472 31.8797)">
<stop stop-color="#FF5959"/>
<stop offset="1" stop-color="#FF8686"/>
</radialGradient>
<radialGradient id="paint2_radial" cx="0" cy="0" r="1" gradientUnits="userSpaceOnUse" gradientTransform="translate(96.1611 127.254) rotate(67.3933) scale(25.4163 21.9578)">
<stop stop-color="#FF5959"/>
<stop offset="1" stop-color="#FF8686"/>
</radialGradient>
<radialGradient id="paint3_radial" cx="0" cy="0" r="1" gradientUnits="userSpaceOnUse" gradientTransform="translate(49.237 144.782) rotate(67.3933) scale(27.2691 31.8621)">
<stop stop-color="#FF5959"/>
<stop offset="1" stop-color="#FF8686"/>
</radialGradient>
</defs>
</svg>
