<svg width="220" height="220" viewBox="0 0 220 220" fill="none" xmlns="http://www.w3.org/2000/svg">
<circle cx="110" cy="110" r="110" fill="#E4F3FF"/>
<g clip-path="url(#clip0)">
<path d="M135.361 59.3756L23.7594 77.4912C18.1125 78.4078 14.2777 83.7287 15.1944 89.3757L25.678 153.961C26.5946 159.608 31.9155 163.442 37.5625 162.526L149.164 144.41C154.811 143.494 158.646 138.173 157.729 132.526L147.246 67.9407C146.329 62.2937 141.008 58.459 135.361 59.3756Z" fill="#FF8686"/>
<path d="M139.325 52.9964L29.0412 70.898C23.3942 71.8147 19.5595 77.1355 20.4761 82.7825L30.9239 147.147C31.8406 152.794 37.1614 156.629 42.8084 155.712L153.093 137.81C158.74 136.894 162.574 131.573 161.658 125.926L151.21 61.5614C150.293 55.9144 144.972 52.0797 139.325 52.9964Z" fill="white" stroke="#FF5959" stroke-width="4" stroke-miterlimit="10"/>
<path d="M24.2002 93.7327L152.165 72.05L155.1 90.3834L27.8173 113.3L24.2002 93.7327Z" fill="#FF8686"/>
<path d="M73.3143 121.884L41.7235 127.012C41.3201 127.078 41.0462 127.458 41.1117 127.861L41.1122 127.864C41.1777 128.267 41.5577 128.541 41.9611 128.476L73.5519 123.348C73.9553 123.282 74.2292 122.902 74.1637 122.499L74.1632 122.496C74.0977 122.093 73.7177 121.819 73.3143 121.884Z" fill="#5DE1B1"/>
<path d="M63.6375 133.034L43.2367 136.345C42.8333 136.411 42.5594 136.791 42.6249 137.194L42.6254 137.197C42.6908 137.601 43.0709 137.874 43.4743 137.809L63.8751 134.497C64.2784 134.432 64.5523 134.052 64.4869 133.649L64.4864 133.646C64.4209 133.242 64.0409 132.968 63.6375 133.034Z" fill="#5DE1B1"/>
<path d="M172.86 165.645C186.526 165.645 197.605 154.567 197.605 140.901C197.605 127.235 186.526 116.156 172.86 116.156C159.194 116.156 148.116 127.235 148.116 140.901C148.116 154.567 159.194 165.645 172.86 165.645Z" stroke="#5DE1B1" stroke-width="3" stroke-miterlimit="10"/>
<path d="M177.651 136.998L181.652 136.505L183.628 149.643L179.824 150.383L177.651 136.998Z" fill="#5DE1B1"/>
<path d="M177.006 150.729L168.012 152.04C165.47 152.409 163.439 152.568 162.084 150.822C161.908 150.585 161.755 150.331 161.628 150.064L158.294 143.272C157.52 141.995 158.242 140.396 159.774 139.984L163.775 139.862C165.928 139.282 168.064 139.63 167.907 137.591L166.996 132.762C166.951 132.184 167.045 131.604 167.27 131.069C167.496 130.535 167.847 130.063 168.293 129.692C168.731 129.33 169.184 129.135 169.518 129.443C170.098 129.968 172.242 133.412 173.684 135.777C174.573 137.233 175.164 138.85 175.425 140.536L177.006 150.729Z" fill="#5DE1B1"/>
<path d="M186.503 99.4135C188.217 99.1091 189.982 99.4975 191.41 100.493C192.837 101.489 193.812 103.011 194.118 104.724L195.673 113.478L182.737 115.775L181.182 107.022C180.88 105.307 181.271 103.543 182.269 102.117C183.266 100.69 184.789 99.7179 186.503 99.4135Z" stroke="#5DE1B1" stroke-width="3" stroke-linecap="round" stroke-linejoin="round"/>
<path d="M203.875 136.505C203.875 136.505 205.653 169.496 177.006 174.089" stroke="#231F20" stroke-width="2" stroke-linecap="round" stroke-linejoin="round" stroke-dasharray="26 26"/>
<path d="M179.054 112.546L198.023 109.178C198.486 109.095 198.963 109.201 199.348 109.47C199.734 109.739 199.997 110.15 200.079 110.613L202.8 125.935L180.336 129.924L177.615 114.602C177.574 114.373 177.579 114.138 177.63 113.91C177.68 113.683 177.774 113.467 177.908 113.276C178.042 113.085 178.212 112.922 178.408 112.797C178.605 112.672 178.824 112.587 179.054 112.546Z" fill="#5DE1B1"/>
<path d="M15.9975 73.2039C15.9975 73.2039 19.6838 67.2339 26.2919 65.5208" stroke="#231F20" stroke-width="2" stroke-linecap="round" stroke-linejoin="round" stroke-dasharray="12 12"/>
</g>
<defs>
<clipPath id="clip0">
<rect width="189.716" height="129.802" fill="white" transform="translate(15.0527 45.1578)"/>
</clipPath>
</defs>
</svg>
